<svg width="1200" height="1200" viewBox="0 0 1200 1200" fill="none" xmlns="http://www.w3.org/2000/svg">
<path d="M302 862C282.333 862 265.333 858.667 251 852C237 845.667 226.333 836.167 219 823.5C211.667 811.167 208.5 796.333 209.5 779L214.5 697C215.5 679.333 212.833 666.667 206.5 659C200.167 651 186.167 647 164.5 647H109.5V607H164.5C186.167 607 200.167 603.167 206.5 595.5C212.833 587.5 215.5 574.667 214.5 557L209.5 475C208.5 457.333 211.667 442.333 219 430C226.333 417.667 237 408.333 251 402C265.333 395.333 282.333 392 302 392H324.5V432H302C286.333 432 274.333 435.667 266 443C257.667 450 253.833 460.667 254.5 475L259.5 557C260.833 578.667 255.667 596 244 609C232.333 621.667 215.833 628 194.5 628V625.5C215.5 625.5 231.833 632 243.5 645C255.5 658 260.833 675.333 259.5 697L254.5 779C253.833 793.333 257.667 804 266 811C274.333 818.333 286.333 822 302 822H324.5V862H302Z" fill="url(#paint0_linear_38_5)"/>
<path d="M884.5 862V822H907C922.667 822 934.667 818.333 943 811C951.333 804 955.167 793.333 954.5 779L949.5 697C948.167 675.333 953.333 658 965 645C977 632 993.5 625.5 1014.5 625.5V628C993.167 628 976.667 621.667 965 609C953.333 596 948.167 578.667 949.5 557L954.5 475C955.167 460.667 951.333 450 943 443C934.667 435.667 922.667 432 907 432H884.5V392H907C926.667 392 943.5 395.333 957.5 402C971.833 408.333 982.667 417.667 990 430C997.333 442.333 1000.5 457.333 999.5 475L994.5 557C993.5 574.667 996.167 587.5 1002.5 595.5C1008.83 603.167 1022.83 607 1044.5 607H1099.5V647H1044.5C1023.17 647 1009.17 651 1002.5 659C996.167 666.667 993.5 679.333 994.5 697L999.5 779C1000.5 796.333 997.333 811.167 990 823.5C982.667 836.167 971.833 845.667 957.5 852C943.5 858.667 926.667 862 907 862H884.5Z" fill="url(#paint1_linear_38_5)"/>
<path d="M341.408 599V489.909H354.619V538.489H412.786V489.909H425.997V599H412.786V550.207H354.619V599H341.408ZM474.816 600.918C469.631 600.918 464.926 599.941 460.7 597.988C456.474 595.999 453.118 593.141 450.633 589.412C448.147 585.648 446.904 581.102 446.904 575.776C446.904 571.088 447.827 567.288 449.674 564.376C451.52 561.429 453.988 559.121 457.078 557.452C460.167 555.783 463.576 554.54 467.305 553.723C471.069 552.871 474.851 552.196 478.651 551.699C483.623 551.06 487.653 550.58 490.743 550.261C493.868 549.906 496.14 549.32 497.561 548.503C499.017 547.686 499.745 546.266 499.745 544.241V543.815C499.745 538.56 498.307 534.476 495.43 531.564C492.589 528.652 488.275 527.196 482.486 527.196C476.485 527.196 471.78 528.51 468.37 531.138C464.961 533.766 462.564 536.571 461.179 539.554L449.248 535.293C451.378 530.321 454.219 526.45 457.77 523.68C461.357 520.875 465.263 518.922 469.489 517.821C473.75 516.685 477.941 516.116 482.06 516.116C484.688 516.116 487.706 516.436 491.116 517.075C494.56 517.679 497.88 518.94 501.076 520.857C504.308 522.775 506.989 525.669 509.12 529.54C511.25 533.411 512.316 538.595 512.316 545.094V599H499.745V587.92H499.106C498.253 589.696 496.833 591.596 494.844 593.62C492.856 595.644 490.21 597.366 486.907 598.787C483.605 600.207 479.574 600.918 474.816 600.918ZM476.733 589.625C481.705 589.625 485.895 588.648 489.304 586.695C492.749 584.742 495.341 582.221 497.081 579.131C498.857 576.042 499.745 572.793 499.745 569.384V557.878C499.212 558.517 498.04 559.103 496.229 559.636C494.454 560.133 492.394 560.577 490.05 560.967C487.742 561.322 485.487 561.642 483.285 561.926C481.119 562.175 479.361 562.388 478.012 562.565C474.745 562.991 471.691 563.684 468.85 564.643C466.044 565.566 463.772 566.969 462.032 568.851C460.327 570.697 459.475 573.219 459.475 576.415C459.475 580.783 461.091 584.085 464.322 586.322C467.589 588.524 471.726 589.625 476.733 589.625ZM568.499 600.705C560.829 600.705 554.224 598.893 548.684 595.271C543.144 591.649 538.883 586.66 535.9 580.303C532.917 573.947 531.425 566.685 531.425 558.517C531.425 550.207 532.952 542.874 536.006 536.518C539.096 530.126 543.393 525.136 548.897 521.55C554.437 517.928 560.9 516.116 568.286 516.116C574.039 516.116 579.224 517.182 583.84 519.312C588.457 521.443 592.239 524.426 595.186 528.261C598.133 532.097 599.962 536.571 600.673 541.685H588.101C587.143 537.956 585.012 534.653 581.709 531.777C578.442 528.865 574.039 527.409 568.499 527.409C563.599 527.409 559.302 528.687 555.609 531.244C551.951 533.766 549.092 537.335 547.033 541.951C545.008 546.532 543.996 551.912 543.996 558.091C543.996 564.412 544.991 569.916 546.979 574.604C549.003 579.291 551.844 582.931 555.502 585.523C559.195 588.116 563.528 589.412 568.499 589.412C571.766 589.412 574.731 588.844 577.395 587.707C580.058 586.571 582.313 584.938 584.16 582.807C586.006 580.676 587.32 578.119 588.101 575.136H600.673C599.962 579.966 598.204 584.316 595.399 588.187C592.629 592.022 588.954 595.076 584.373 597.349C579.827 599.586 574.536 600.705 568.499 600.705ZM630.768 569.17L630.555 553.616H633.112L668.908 517.182H684.462L646.322 555.747H645.257L630.768 569.17ZM619.05 599V489.909H631.621V599H619.05ZM671.038 599L639.078 558.517L648.027 549.781L687.018 599H671.038ZM487.347 706H474.137C473.355 702.2 471.988 698.862 470.035 695.986C468.117 693.109 465.774 690.695 463.004 688.741C460.269 686.753 457.233 685.261 453.895 684.267C450.557 683.273 447.077 682.776 443.455 682.776C436.85 682.776 430.866 684.445 425.504 687.783C420.177 691.121 415.934 696.039 412.773 702.538C409.648 709.036 408.085 717.009 408.085 726.455C408.085 735.901 409.648 743.873 412.773 750.371C415.934 756.87 420.177 761.788 425.504 765.126C430.866 768.464 436.85 770.134 443.455 770.134C447.077 770.134 450.557 769.636 453.895 768.642C457.233 767.648 460.269 766.174 463.004 764.221C465.774 762.232 468.117 759.8 470.035 756.923C471.988 754.011 473.355 750.673 474.137 746.909H487.347C486.353 752.484 484.541 757.474 481.914 761.877C479.286 766.281 476.019 770.027 472.112 773.116C468.206 776.17 463.821 778.496 458.956 780.094C454.126 781.692 448.959 782.491 443.455 782.491C434.151 782.491 425.877 780.219 418.632 775.673C411.388 771.128 405.688 764.665 401.534 756.284C397.379 747.903 395.301 737.96 395.301 726.455C395.301 714.949 397.379 705.006 401.534 696.625C405.688 688.244 411.388 681.781 418.632 677.236C425.877 672.69 434.151 670.418 443.455 670.418C448.959 670.418 454.126 671.217 458.956 672.815C463.821 674.413 468.206 676.756 472.112 679.846C476.019 682.9 479.286 686.629 481.914 691.032C484.541 695.4 486.353 700.389 487.347 706ZM583.267 706C582.096 702.413 580.551 699.2 578.633 696.359C576.751 693.482 574.496 691.032 571.868 689.008C569.276 686.984 566.329 685.439 563.026 684.374C559.723 683.308 556.101 682.776 552.16 682.776C545.696 682.776 539.819 684.445 534.528 687.783C529.237 691.121 525.029 696.039 521.904 702.538C518.779 709.036 517.216 717.009 517.216 726.455C517.216 735.901 518.797 743.873 521.957 750.371C525.118 756.87 529.397 761.788 534.794 765.126C540.192 768.464 546.265 770.134 553.012 770.134C559.262 770.134 564.766 768.802 569.525 766.138C574.319 763.44 578.047 759.64 580.711 754.739C583.41 749.803 584.759 743.997 584.759 737.321L588.807 738.173H555.995V726.455H597.543V738.173C597.543 747.158 595.625 754.97 591.79 761.611C587.991 768.251 582.735 773.401 576.023 777.058C569.347 780.68 561.677 782.491 553.012 782.491C543.353 782.491 534.866 780.219 527.55 775.673C520.27 771.128 514.589 764.665 510.505 756.284C506.456 747.903 504.432 737.96 504.432 726.455C504.432 717.825 505.586 710.066 507.895 703.177C510.238 696.252 513.541 690.357 517.802 685.492C522.064 680.627 527.106 676.898 532.93 674.306C538.754 671.714 545.164 670.418 552.16 670.418C557.912 670.418 563.275 671.288 568.246 673.028C573.253 674.732 577.71 677.165 581.616 680.325C585.558 683.45 588.843 687.197 591.471 691.565C594.098 695.897 595.91 700.709 596.904 706H583.267ZM620.168 781V671.909H633.378V720.489H691.546V671.909H704.756V781H691.546V732.207H633.378V781H620.168ZM790.862 699.182C790.223 693.784 787.631 689.594 783.085 686.611C778.54 683.628 772.965 682.136 766.36 682.136C761.53 682.136 757.304 682.918 753.682 684.48C750.095 686.043 747.29 688.191 745.266 690.925C743.277 693.66 742.283 696.767 742.283 700.247C742.283 703.159 742.975 705.663 744.36 707.758C745.781 709.817 747.592 711.54 749.794 712.925C751.995 714.274 754.304 715.393 756.718 716.281C759.133 717.133 761.353 717.825 763.377 718.358L774.456 721.341C777.297 722.087 780.458 723.116 783.938 724.43C787.453 725.744 790.809 727.538 794.005 729.81C797.237 732.048 799.9 734.924 801.995 738.44C804.09 741.955 805.138 746.27 805.138 751.384C805.138 757.278 803.593 762.605 800.504 767.364C797.45 772.122 792.975 775.904 787.081 778.71C781.221 781.515 774.101 782.918 765.72 782.918C757.908 782.918 751.143 781.657 745.426 779.136C739.744 776.614 735.269 773.099 732.002 768.589C728.771 764.079 726.942 758.841 726.516 752.875H740.152C740.507 756.994 741.892 760.403 744.307 763.102C746.757 765.766 749.847 767.754 753.576 769.068C757.34 770.347 761.388 770.986 765.72 770.986C770.763 770.986 775.291 770.169 779.304 768.536C783.316 766.866 786.495 764.558 788.838 761.611C791.182 758.628 792.354 755.148 792.354 751.17C792.354 747.548 791.342 744.601 789.318 742.328C787.294 740.055 784.63 738.209 781.328 736.788C778.025 735.368 774.456 734.125 770.621 733.06L757.198 729.224C748.675 726.774 741.928 723.276 736.956 718.731C731.985 714.185 729.499 708.237 729.499 700.886C729.499 694.778 731.15 689.452 734.453 684.906C737.791 680.325 742.265 676.774 747.876 674.253C753.522 671.696 759.826 670.418 766.786 670.418C773.817 670.418 780.067 671.678 785.536 674.2C791.005 676.685 795.337 680.094 798.533 684.427C801.764 688.759 803.469 693.678 803.647 699.182H790.862Z" fill="white"/>
<path d="M805.622 627.764C794.755 627.764 785.149 626.273 776.804 623.29C768.459 620.342 761.445 615.992 755.764 610.239C750.082 604.487 745.785 597.437 742.873 589.092C739.961 580.747 738.505 571.195 738.505 560.435C738.505 550.03 739.979 540.726 742.926 532.523C745.909 524.32 750.224 517.359 755.87 511.642C761.552 505.889 768.441 501.504 776.538 498.485C784.67 495.467 793.867 493.957 804.13 493.957C814.109 493.957 822.845 495.591 830.337 498.858C837.866 502.089 844.151 506.475 849.194 512.015C854.272 517.519 858.072 523.716 860.593 530.605C863.15 537.494 864.428 544.597 864.428 551.912C864.428 557.061 864.18 562.281 863.683 567.572C863.185 572.864 862.138 577.729 860.54 582.168C858.942 586.571 856.474 590.122 853.136 592.821C849.833 595.52 845.359 596.869 839.712 596.869C837.227 596.869 834.492 596.479 831.509 595.697C828.526 594.916 825.881 593.62 823.573 591.809C821.264 589.998 819.897 587.565 819.471 584.511H818.832C817.979 586.571 816.666 588.524 814.89 590.371C813.15 592.217 810.859 593.691 808.019 594.792C805.213 595.893 801.786 596.372 797.738 596.23C793.122 596.053 789.055 595.023 785.54 593.141C782.024 591.223 779.077 588.631 776.698 585.364C774.354 582.061 772.578 578.244 771.371 573.911C770.199 569.543 769.613 564.838 769.613 559.795C769.613 555.001 770.323 550.616 771.744 546.638C773.164 542.661 775.135 539.181 777.656 536.198C780.213 533.215 783.196 530.836 786.605 529.06C790.05 527.249 793.761 526.131 797.738 525.705C801.289 525.349 804.521 525.509 807.433 526.184C810.345 526.823 812.742 527.8 814.624 529.114C816.506 530.392 817.695 531.812 818.193 533.375H818.832V527.409H830.124V575.562C830.124 578.545 830.959 581.173 832.628 583.446C834.297 585.719 836.729 586.855 839.926 586.855C843.548 586.855 846.318 585.612 848.235 583.126C850.188 580.641 851.52 576.805 852.23 571.621C852.976 566.436 853.349 559.795 853.349 551.699C853.349 546.94 852.692 542.253 851.378 537.636C850.1 532.984 848.146 528.634 845.519 524.586C842.926 520.538 839.641 516.969 835.664 513.879C831.687 510.79 827.017 508.375 821.655 506.635C816.328 504.859 810.274 503.972 803.491 503.972C795.146 503.972 787.671 505.268 781.065 507.86C774.496 510.417 768.903 514.163 764.286 519.099C759.705 524 756.207 529.966 753.793 536.997C751.413 543.993 750.224 551.947 750.224 560.861C750.224 569.916 751.413 577.96 753.793 584.991C756.207 592.022 759.759 597.952 764.446 602.782C769.169 607.612 775.011 611.269 781.971 613.755C788.931 616.276 796.957 617.537 806.048 617.537C809.954 617.537 813.807 617.164 817.607 616.418C821.406 615.673 824.762 614.856 827.674 613.968C830.586 613.08 832.681 612.423 833.96 611.997L836.943 621.798C834.741 622.722 831.864 623.645 828.313 624.568C824.798 625.491 821.033 626.255 817.021 626.859C813.043 627.462 809.244 627.764 805.622 627.764ZM799.443 585.364C804.201 585.364 808.054 584.405 811.002 582.487C813.949 580.57 816.097 577.675 817.447 573.805C818.796 569.934 819.471 565.051 819.471 559.156C819.471 553.19 818.725 548.538 817.234 545.2C815.742 541.862 813.541 539.518 810.629 538.169C807.717 536.82 804.13 536.145 799.869 536.145C795.82 536.145 792.358 537.21 789.482 539.341C786.641 541.436 784.457 544.241 782.93 547.757C781.438 551.237 780.693 555.037 780.693 559.156C780.693 563.702 781.296 567.981 782.504 571.994C783.711 575.971 785.682 579.202 788.416 581.688C791.151 584.138 794.826 585.364 799.443 585.364Z" fill="url(#paint2_linear_38_5)"/>
<defs>
<linearGradient id="paint0_linear_38_5" x1="319" y1="354" x2="330.5" y2="871" gradientUnits="userSpaceOnUse">
<stop stop-color="#FAFF00"/>
<stop offset="0.445" stop-color="#2521FF"/>
<stop offset="0.525" stop-color="#2521FF"/>
<stop offset="1" stop-color="#2521FF"/>
</linearGradient>
<linearGradient id="paint1_linear_38_5" x1="1094" y1="354" x2="1105.5" y2="871" gradientUnits="userSpaceOnUse">
<stop stop-color="#2521FF"/>
<stop offset="0.475" stop-color="#2521FF"/>
<stop offset="0.555" stop-color="#2521FF"/>
<stop offset="1" stop-color="#FAFF00"/>
</linearGradient>
<linearGradient id="paint2_linear_38_5" x1="767.5" y1="522" x2="853" y2="618.5" gradientUnits="userSpaceOnUse">
<stop stop-color="#FD9EFF"/>
<stop offset="1" stop-color="#6B006D"/>
</linearGradient>
</defs>
</svg>
